<svg 
 xmlns="http://www.w3.org/2000/svg"
 xmlns:xlink="http://www.w3.org/1999/xlink"
 width="87px" height="65px">
<path fill-rule="evenodd"  fill-opacity="0" fill="rgb(0, 0, 0)"
 d="M0.000,-0.000 L86.000,-0.000 L86.000,64.000 L0.000,64.000 L0.000,-0.000 Z"/>
<path fill-rule="evenodd"  fill="rgb(195, 234, 33)"
 d="M27.194,8.626 C27.194,8.626 28.410,17.365 35.041,20.611 C41.672,23.857 51.206,20.380 51.206,20.380 C51.206,20.380 49.989,11.641 43.359,8.395 C36.728,5.149 27.194,8.626 27.194,8.626 Z"/>
<path fill-rule="evenodd"  fill="rgb(195, 234, 33)"
 d="M75.175,8.620 C75.175,8.620 73.959,17.327 67.328,20.561 C60.697,23.795 51.163,20.331 51.163,20.331 C51.163,20.331 52.379,11.624 59.010,8.390 C65.641,5.156 75.175,8.620 75.175,8.620 Z"/>
<path fill-rule="evenodd"  stroke="rgb(131, 204, 82)" stroke-width="2px" stroke-linecap="round" stroke-linejoin="miter" fill="none"
 d="M59.180,16.793 C54.367,17.818 51.995,20.792 51.995,23.918 C51.995,27.044 51.994,31.813 51.994,31.813 "/>
<path fill-rule="evenodd"  stroke="rgb(131, 204, 82)" stroke-width="2px" stroke-linecap="round" stroke-linejoin="miter" fill="none"
 d="M42.380,14.405 C48.245,14.405 52.012,21.510 52.012,21.510 L52.012,31.212 "/>
<path fill-rule="evenodd"  fill="rgb(153, 89, 46)"
 d="M50.569,30.025 C57.041,30.025 71.600,43.305 71.600,44.347 C66.732,44.347 67.033,47.000 60.570,47.000 C50.658,47.000 38.095,47.000 28.400,47.000 C28.400,41.408 43.634,30.025 50.569,30.025 Z"/>
<path fill-rule="evenodd"  fill="rgb(255, 187, 153)"
 d="M77.597,44.119 C76.225,45.113 57.290,55.148 54.126,56.794 C52.075,57.861 50.302,57.994 50.302,57.994 L24.050,54.195 L24.050,47.016 L24.050,46.997 L24.050,37.403 C24.050,37.403 22.932,35.000 31.221,35.000 C38.337,35.000 39.310,36.993 42.993,36.993 C46.677,36.993 50.299,36.993 52.370,36.993 C54.442,36.993 56.121,38.561 56.121,40.496 C56.121,42.430 54.442,43.998 52.370,43.998 C50.299,43.998 44.187,43.998 44.187,43.998 L45.556,46.997 L54.170,46.997 C54.170,46.997 72.095,39.229 73.583,38.422 C74.579,37.881 77.424,37.576 78.476,39.235 C79.490,40.834 78.969,43.125 77.597,44.119 Z"/>
<path fill-rule="evenodd"  fill="rgb(184, 189, 204)"
 d="M10.000,35.000 L24.000,35.000 L24.000,57.000 L10.000,57.000 L10.000,35.000 Z"/>
<path fill-rule="evenodd"  fill="rgb(61, 73, 102)"
 d="M9.000,34.000 L19.000,34.000 C20.105,34.000 21.000,34.895 21.000,36.000 L21.000,56.000 C21.000,57.105 20.105,58.000 19.000,58.000 L9.000,58.000 C7.896,58.000 7.000,57.105 7.000,56.000 L7.000,36.000 C7.000,34.895 7.896,34.000 9.000,34.000 Z"/>
<path fill-rule="evenodd"  fill="rgb(255, 255, 255)"
 d="M10.500,53.000 C11.328,53.000 12.000,53.672 12.000,54.500 C12.000,55.328 11.328,56.000 10.500,56.000 C9.672,56.000 9.000,55.328 9.000,54.500 C9.000,53.672 9.672,53.000 10.500,53.000 Z"/>
</svg>