<svg 
 xmlns="http://www.w3.org/2000/svg"
 xmlns:xlink="http://www.w3.org/1999/xlink"
 width="16px" height="14px">
<path fill-rule="evenodd"  fill="rgb(255, 255, 255)"
 d="M15.000,14.000 L1.000,14.000 C0.448,14.000 -0.000,13.552 -0.000,13.000 L-0.000,10.000 C-0.000,9.448 0.448,9.000 1.000,9.000 C1.552,9.000 2.000,9.448 2.000,10.000 L2.000,12.000 L14.000,12.000 L14.000,10.000 C14.000,9.448 14.448,9.000 15.000,9.000 C15.552,9.000 16.000,9.448 16.000,10.000 L16.000,13.000 C16.000,13.552 15.552,14.000 15.000,14.000 ZM11.266,5.657 L9.004,3.410 L9.004,10.000 C9.004,10.552 8.557,11.000 8.004,11.000 L7.996,11.000 C7.443,11.000 6.996,10.552 6.996,10.000 L6.996,3.453 L4.716,5.717 C4.321,6.111 3.680,6.111 3.284,5.717 C2.889,5.324 2.889,4.685 3.284,4.292 L7.244,0.358 C7.428,0.144 7.691,0.000 7.996,0.000 L8.004,0.000 C8.281,0.000 8.522,0.121 8.703,0.303 C8.708,0.308 8.715,0.309 8.720,0.314 C8.721,0.315 8.721,0.316 8.722,0.317 C8.725,0.320 8.730,0.321 8.733,0.325 C8.742,0.333 8.753,0.335 8.761,0.343 L12.687,4.243 C13.079,4.633 13.079,5.266 12.687,5.657 C12.294,6.047 11.658,6.047 11.266,5.657 Z"/>
</svg>