<svg 
 xmlns="http://www.w3.org/2000/svg"
 xmlns:xlink="http://www.w3.org/1999/xlink"
 width="46px" height="46px">
<path fill-rule="evenodd"  fill-opacity="0" fill="rgb(255, 255, 255)"
 d="M0.000,0.000 L46.000,0.000 L46.000,46.000 L0.000,46.000 L0.000,0.000 Z"/>
<path fill-rule="evenodd"  opacity="0.8" fill="rgb(255, 255, 255)"
 d="M37.179,45.010 L8.839,45.010 C7.273,45.010 6.005,43.424 6.005,41.795 C6.005,32.038 13.633,23.746 23.009,23.746 C32.385,23.746 40.014,32.038 40.014,41.795 C40.014,43.424 38.745,45.010 37.179,45.010 ZM23.009,20.661 C17.374,20.661 12.807,16.039 12.807,10.339 C12.807,4.639 17.374,0.018 23.009,0.018 C28.644,0.018 33.212,4.639 33.212,10.339 C33.212,16.039 28.644,20.661 23.009,20.661 Z"/>
</svg>