<svg 
 xmlns="http://www.w3.org/2000/svg"
 xmlns:xlink="http://www.w3.org/1999/xlink"
 width="46px" height="46px">
<path fill-rule="evenodd"  fill-opacity="0" fill="rgb(255, 255, 255)"
 d="M0.000,0.000 L46.000,0.000 L46.000,46.000 L0.000,46.000 L0.000,0.000 Z"/>
<path fill-rule="evenodd"  opacity="0.8" fill="rgb(255, 255, 255)"
 d="M29.999,31.000 C25.686,31.000 20.375,31.000 16.000,31.000 C16.000,24.031 9.000,25.315 9.000,14.889 C9.000,7.218 15.268,1.000 22.999,1.000 C23.068,1.000 23.125,1.000 23.198,1.000 C30.820,1.000 37.000,7.218 37.000,14.889 C37.000,25.315 29.999,24.031 29.999,31.000 ZM22.000,25.000 L25.000,25.000 L25.000,22.031 L22.000,22.031 L22.000,25.000 ZM25.006,8.000 L22.000,8.000 L22.000,20.011 L25.006,20.011 L25.006,8.000 ZM29.999,38.000 C29.999,39.657 28.656,41.000 27.000,41.000 L25.987,41.000 L25.987,43.000 C25.987,44.105 25.092,45.000 23.987,45.000 L22.012,45.000 C20.907,45.000 20.012,44.105 20.012,43.000 L20.012,41.000 L19.000,41.000 C17.343,41.000 16.000,39.657 16.000,38.000 L16.000,34.000 L29.999,34.000 L29.999,38.000 Z"/>
</svg>