<svg 
 xmlns="http://www.w3.org/2000/svg"
 xmlns:xlink="http://www.w3.org/1999/xlink"
 width="46px" height="46px">
<path fill-rule="evenodd"  fill-opacity="0" fill="rgb(255, 255, 255)"
 d="M-0.000,-0.000 L46.000,-0.000 L46.000,46.000 L-0.000,46.000 L-0.000,-0.000 Z"/>
<path fill-rule="evenodd"  opacity="0.8" fill="rgb(255, 255, 255)"
 d="M33.857,12.856 L24.573,12.856 L24.573,19.401 C30.831,20.186 35.676,25.592 35.676,32.149 C35.676,39.246 30.001,45.000 23.000,45.000 C15.999,45.000 10.323,39.246 10.323,32.149 C10.323,25.592 15.168,20.186 21.426,19.401 L21.426,16.071 L12.142,16.071 C7.644,16.071 4.000,12.617 4.000,8.356 L4.000,3.214 L14.856,3.214 C18.888,3.214 22.225,5.991 22.876,9.634 L22.999,9.634 L22.999,7.714 C22.999,3.453 26.644,-0.000 31.143,-0.000 L41.999,-0.000 L41.999,5.142 C41.999,9.403 38.354,12.856 33.857,12.856 ZM31.019,32.685 L29.408,32.685 L27.805,39.062 L24.601,39.062 L22.999,33.489 L21.397,39.062 L18.194,39.062 L16.590,32.685 L14.981,32.685 L14.981,31.114 L16.195,31.114 L14.990,26.324 L18.194,26.324 L19.398,31.114 L20.478,31.114 L21.397,27.916 L24.601,27.916 L25.520,31.114 L26.600,31.114 L27.805,26.324 L31.008,26.324 L29.804,31.114 L31.019,31.114 L31.019,32.685 ZM19.794,32.685 L19.903,33.117 L20.027,32.685 L19.794,32.685 ZM25.972,32.685 L26.096,33.117 L26.205,32.685 L25.972,32.685 Z"/>
</svg>