<svg 
 xmlns="http://www.w3.org/2000/svg"
 xmlns:xlink="http://www.w3.org/1999/xlink"
 width="46px" height="46px">
<path fill-rule="evenodd"  fill-opacity="0" fill="rgb(255, 255, 255)"
 d="M-0.000,-0.000 L46.000,-0.000 L46.000,46.000 L-0.000,46.000 L-0.000,-0.000 Z"/>
<path fill-rule="evenodd"  fill="rgb(255, 255, 255)"
 d="M5.000,36.000 L11.000,36.000 L11.000,44.000 L5.000,44.000 L5.000,36.000 Z"/>
<path fill-rule="evenodd"  fill="rgb(255, 255, 255)"
 d="M13.000,30.000 L19.000,30.000 L19.000,44.000 L13.000,44.000 L13.000,30.000 Z"/>
<path fill-rule="evenodd"  fill="rgb(255, 255, 255)"
 d="M21.000,24.000 L27.000,24.000 L27.000,44.000 L21.000,44.000 L21.000,24.000 Z"/>
<path fill-rule="evenodd"  fill="rgb(255, 255, 255)"
 d="M29.000,25.000 L35.000,25.000 L35.000,44.000 L29.000,44.000 L29.000,25.000 Z"/>
<path fill-rule="evenodd"  fill="rgb(255, 255, 255)"
 d="M37.000,19.000 L43.000,19.000 L43.000,44.000 L37.000,44.000 L37.000,19.000 Z"/>
<path fill-rule="evenodd"  fill="rgb(255, 255, 255)"
 d="M5.152,28.680 C4.830,28.647 4.520,28.483 4.299,28.197 C3.857,27.624 3.941,26.779 4.489,26.307 L22.944,9.907 L26.802,15.031 L40.387,3.301 C40.935,2.830 41.734,2.911 42.176,3.484 C42.618,4.057 42.531,4.903 41.987,5.375 L26.397,18.832 L22.542,13.708 L6.086,28.380 C5.813,28.616 5.477,28.714 5.152,28.680 Z"/>
<path fill-rule="evenodd"  fill="rgb(255, 255, 255)"
 d="M40.000,13.000 L40.000,5.000 L32.000,5.000 L32.000,2.000 L40.000,2.000 L43.000,2.000 L43.000,5.000 L43.000,13.000 L40.000,13.000 Z"/>
</svg>